<svg width="682" height="203" viewBox="0 0 682 203" fill="none" xmlns="http://www.w3.org/2000/svg">
<path d="M659.012 203H24.3201C11.1302 203 0 192.151 0 178.964V24.4009C0 11.2143 11.1302 -6.67572e-06 24.3201 -6.67572e-06H659.012C672.193 -6.67572e-06 682 11.2143 682 24.4009V178.964C682 192.151 671.859 203 658.68 203H659.012Z" fill="black"/>
<path d="M678.409 178.968C678.409 189.678 669.74 198.352 659.015 198.352H24.3175C13.5979 198.352 4.89844 189.678 4.89844 178.968V24.3962C4.89844 13.6922 13.5979 4.98855 24.3175 4.98855H659.01C669.74 4.98855 678.404 13.6922 678.404 24.3962V178.968H678.409Z" fill="#040606"/>
<path d="M152.804 100.609C152.654 84.2995 166.15 76.3627 166.769 75.9915C159.126 64.842 147.277 63.3172 143.116 63.1988C133.164 62.1536 123.516 69.1566 118.445 69.1566C113.276 69.1566 105.468 63.3023 97.0598 63.4758C86.2367 63.6437 76.1066 69.9132 70.5518 79.649C59.0909 99.5018 67.6395 128.679 78.6189 144.726C84.1121 152.584 90.5316 161.361 98.9323 161.051C107.152 160.71 110.223 155.807 120.145 155.807C129.975 155.807 132.856 161.051 141.427 160.852C150.247 160.71 155.805 152.959 161.105 145.028C167.452 136.018 170.002 127.146 170.103 126.692C169.899 126.622 152.971 120.163 152.804 100.609Z" fill="white"/>
<path d="M136.613 52.6452C141.032 47.112 144.057 39.5883 143.217 31.9491C136.818 32.2338 128.815 36.3756 124.209 41.7903C120.133 46.5566 116.49 54.3721 117.431 61.7196C124.618 62.2527 131.999 58.091 136.613 52.6452Z" fill="white"/>
<path d="M252.092 131.84L246.398 114.256C245.798 112.457 244.667 108.226 243.002 101.566H242.802C242.137 104.433 241.071 108.661 239.606 114.256L234.014 131.84H252.092ZM271.768 159.922H260.282L253.989 140.138H232.117L226.123 159.922H214.938L236.609 92.5741H249.994L271.768 159.922Z" fill="white"/>
<path d="M316.513 135.439C316.513 130.714 315.45 126.815 313.318 123.75C310.986 120.553 307.856 118.952 303.929 118.952C301.267 118.952 298.851 119.842 296.689 121.601C294.523 123.37 293.108 125.683 292.443 128.549C292.109 129.884 291.945 130.981 291.945 131.841V139.937C291.945 143.47 293.027 146.45 295.19 148.882C297.354 151.314 300.168 152.53 303.63 152.53C307.691 152.53 310.855 150.962 313.118 147.834C315.381 144.701 316.513 140.57 316.513 135.439ZM327.5 135.044C327.5 143.302 325.27 149.83 320.81 154.625C316.812 158.891 311.852 161.021 305.927 161.021C299.535 161.021 294.94 158.721 292.145 154.126H291.945V179.707H281.158V127.349C281.158 122.155 281.023 116.827 280.758 111.361H290.245L290.846 119.055H291.046C294.642 113.258 300.1 110.362 307.425 110.362C313.153 110.362 317.93 112.626 321.758 117.153C325.587 121.69 327.5 127.65 327.5 135.044Z" fill="white"/>
<path d="M372.342 135.439C372.342 130.714 371.275 126.815 369.14 123.75C366.81 120.553 363.687 118.952 359.754 118.952C357.087 118.952 354.676 119.842 352.513 121.601C350.349 123.37 348.938 125.683 348.272 128.549C347.94 129.884 347.773 130.981 347.773 131.841V139.937C347.773 143.47 348.855 146.45 351.011 148.882C353.175 151.314 355.991 152.53 359.458 152.53C363.519 152.53 366.68 150.962 368.943 147.834C371.206 144.701 372.342 140.57 372.342 135.439ZM383.328 135.044C383.328 143.302 381.095 149.83 376.63 154.625C372.638 158.891 367.679 161.021 361.751 161.021C355.358 161.021 350.764 158.721 347.97 154.126H347.773V179.707H336.986V127.349C336.986 122.155 336.849 116.827 336.586 111.361H346.073L346.674 119.055H346.874C350.467 113.258 355.921 110.362 363.253 110.362C368.972 110.362 373.755 112.626 377.588 117.153C381.412 121.69 383.328 127.65 383.328 135.044Z" fill="white"/>
<path d="M445.748 141.039C445.748 146.767 443.762 151.427 439.771 155.025C435.383 158.959 429.278 160.922 421.433 160.922C414.192 160.922 408.381 159.521 403.984 156.725L406.484 147.729C411.217 150.597 416.414 152.029 422.076 152.029C426.137 152.029 429.297 151.11 431.57 149.277C433.833 147.443 434.959 144.988 434.959 141.919C434.959 139.185 434.03 136.882 432.163 135.013C430.305 133.145 427.203 131.411 422.876 129.804C411.089 125.406 405.2 118.966 405.2 110.49C405.2 104.955 407.265 100.416 411.395 96.8792C415.515 93.3428 421.008 91.5734 427.876 91.5734C434.001 91.5734 439.089 92.6411 443.15 94.7718L440.452 103.566C436.658 101.503 432.37 100.467 427.568 100.467C423.775 100.467 420.81 101.401 418.687 103.267C416.889 104.933 415.99 106.961 415.99 109.363C415.99 112.027 417.017 114.226 419.081 115.956C420.879 117.557 424.14 119.287 428.873 121.156C434.663 123.488 438.921 126.217 441.658 129.345C444.384 132.478 445.748 136.378 445.748 141.039Z" fill="white"/>
<path d="M481.405 119.455H469.519V143.035C469.519 149.031 471.613 152.029 475.812 152.029C477.739 152.029 479.339 151.861 480.605 151.53L480.901 159.725C478.777 160.521 475.98 160.922 472.512 160.922C468.254 160.922 464.924 159.621 462.525 157.026C460.133 154.427 458.927 150.063 458.927 143.935V119.455H451.844V111.36H458.927V102.466L469.519 99.2685V111.36H481.405V119.455Z" fill="white"/>
<path d="M523.857 135.591C523.857 131.113 522.899 127.273 520.962 124.065C518.699 120.191 515.468 118.254 511.279 118.254C506.942 118.254 503.652 120.191 501.389 124.065C499.453 127.273 498.494 131.177 498.494 135.793C498.494 140.271 499.453 144.111 501.389 147.314C503.721 151.188 506.981 153.126 511.181 153.126C515.301 153.126 518.532 151.154 520.862 147.215C522.859 143.943 523.857 140.064 523.857 135.591ZM535.051 135.24C535.051 142.703 532.916 148.831 528.657 153.626C524.192 158.558 518.264 161.02 510.873 161.02C503.75 161.02 498.079 158.657 493.85 153.927C489.621 149.198 487.508 143.232 487.508 136.041C487.508 128.514 489.682 122.351 494.047 117.557C498.406 112.758 504.284 110.36 511.674 110.36C518.798 110.36 524.527 112.723 528.856 117.458C532.986 122.055 535.051 127.98 535.051 135.24Z" fill="white"/>
<path d="M570.099 120.848C569.032 120.651 567.896 120.552 566.7 120.552C562.907 120.552 559.972 121.985 557.907 124.852C556.109 127.382 555.21 130.58 555.21 134.44V159.922H544.431L544.529 126.651C544.529 121.051 544.391 115.956 544.125 111.36H553.521L553.915 120.651H554.213C555.348 117.458 557.146 114.888 559.607 112.961C562.008 111.226 564.606 110.361 567.402 110.361C568.399 110.361 569.298 110.43 570.099 110.559V120.848Z" fill="white"/>
<path d="M608.049 130.544C608.118 127.347 607.416 124.584 605.955 122.251C604.087 119.252 601.222 117.754 597.36 117.754C593.831 117.754 590.966 119.216 588.773 122.153C586.975 124.485 585.908 127.283 585.581 130.544H608.049ZM618.334 133.342C618.334 135.274 618.206 136.905 617.939 138.235H585.581C585.711 143.034 587.27 146.701 590.275 149.231C593.001 151.495 596.528 152.627 600.857 152.627C605.648 152.627 610.015 151.86 613.947 150.328L615.637 157.82C611.042 159.822 605.618 160.82 599.365 160.82C591.836 160.82 585.928 158.607 581.63 154.173C577.342 149.745 575.188 143.799 575.188 136.337C575.188 129.012 577.184 122.914 581.185 118.051C585.374 112.856 591.036 110.261 598.16 110.261C605.155 110.261 610.45 112.856 614.046 118.051C616.901 122.182 618.334 127.283 618.334 133.342Z" fill="white"/>
<path d="M242.929 51.2864C242.929 47.4237 241.906 44.4633 239.861 42.3995C237.815 40.3385 234.832 39.308 230.905 39.308C229.235 39.308 227.812 39.4222 226.636 39.6519V64.3927C227.288 64.4918 228.484 64.5409 230.217 64.5409C234.274 64.5409 237.405 63.412 239.615 61.153C241.823 58.8946 242.929 55.6058 242.929 51.2864ZM248.52 51.1384C248.52 57.0958 246.738 61.5788 243.171 64.5905C239.865 67.3702 235.173 68.7617 229.092 68.7617C226.079 68.7617 223.495 68.6308 221.336 68.3691V35.8217C224.151 35.365 227.189 35.1352 230.465 35.1352C236.254 35.1352 240.622 36.3955 243.566 38.9161C246.866 41.7623 248.52 45.8364 248.52 51.1384Z" fill="white"/>
<path d="M272.664 56.5144C272.664 54.3153 272.189 52.4276 271.24 50.853C270.129 48.9484 268.543 47.9969 266.483 47.9969C264.354 47.9969 262.734 48.9484 261.622 50.853C260.674 52.4276 260.2 54.3477 260.2 56.6103C260.2 58.8123 260.674 60.6971 261.622 62.2748C262.769 64.1768 264.368 65.1284 266.434 65.1284C268.459 65.1284 270.045 64.1598 271.191 62.2247C272.175 60.6167 272.664 58.7136 272.664 56.5144ZM278.162 56.341C278.162 60.0077 277.115 63.0182 275.02 65.3734C272.827 67.7974 269.917 69.0078 266.286 69.0078C262.783 69.0078 259.997 67.8465 257.917 65.5216C255.843 63.1988 254.805 60.2685 254.805 56.7343C254.805 53.0366 255.871 50.01 258.016 47.6529C260.161 45.2959 263.045 44.1187 266.676 44.1187C270.179 44.1187 272.989 45.2803 275.118 47.6036C277.144 49.8619 278.162 52.7744 278.162 56.341Z" fill="white"/>
<path d="M317.905 44.611L310.445 68.4688H305.589L302.496 58.1091C301.711 55.5251 301.074 52.9552 300.58 50.4022H300.487C300.028 53.0214 299.389 55.5914 298.569 58.1091L295.285 68.4688H290.374L283.359 44.611H288.808L291.505 55.9508C292.158 58.6335 292.696 61.1865 293.126 63.608H293.22C293.615 61.6137 294.267 59.0762 295.186 55.9988L298.569 44.611H302.888L306.127 55.7549C306.914 58.47 307.551 61.0893 308.04 63.608H308.188C308.548 61.1541 309.087 58.5377 309.808 55.7549L312.702 44.611H317.905Z" fill="white"/>
<path d="M345.385 68.4688H340.084V54.8061C340.084 50.5953 338.484 48.4892 335.278 48.4892C333.707 48.4892 332.433 49.0686 331.45 50.2274C330.472 51.3862 329.978 52.7494 329.978 54.317V68.4688H324.677V51.4355C324.677 49.3392 324.613 47.0668 324.484 44.611H329.143L329.389 48.3383H329.537C330.156 47.1824 331.075 46.2209 332.285 45.4597C333.722 44.5673 335.327 44.1204 337.092 44.1204C339.319 44.1204 341.167 44.8394 342.639 46.2801C344.472 48.0465 345.385 50.6827 345.385 54.183V68.4688Z" fill="white"/>
<path d="M360 68.4688H354.703V33.6631H360V68.4688Z" fill="white"/>
<path d="M385.713 56.5144C385.713 54.3153 385.238 52.4276 384.289 50.853C383.183 48.9484 381.592 47.9969 379.538 47.9969C377.403 47.9969 375.783 48.9484 374.677 50.853C373.728 52.4276 373.253 54.3477 373.253 56.6103C373.253 58.8123 373.728 60.6971 374.677 62.2748C375.822 64.1768 377.423 65.1284 379.489 65.1284C381.513 65.1284 383.094 64.1598 384.24 62.2247C385.228 60.6167 385.713 58.7136 385.713 56.5144ZM391.215 56.341C391.215 60.0077 390.168 63.0182 388.074 65.3734C385.88 67.7974 382.966 69.0078 379.341 69.0078C375.832 69.0078 373.046 67.8465 370.972 65.5216C368.896 63.1988 367.859 60.2685 367.859 56.7343C367.859 53.0366 368.926 50.01 371.071 47.6529C373.214 45.2959 376.098 44.1187 379.725 44.1187C383.233 44.1187 386.038 45.2803 388.173 47.6036C390.198 49.8619 391.215 52.7744 391.215 56.341Z" fill="white"/>
<path d="M411.367 60.2685V56.5877C405.518 56.4891 402.594 58.0933 402.594 61.3977C402.594 62.6426 402.93 63.5743 403.612 64.1971C404.294 64.8173 405.163 65.1284 406.2 65.1284C407.367 65.1284 408.453 64.7606 409.441 64.0243C410.439 63.2874 411.052 62.3486 411.279 61.2018C411.338 60.9396 411.367 60.6294 411.367 60.2685ZM416.871 68.467H412.108L411.713 65.7186H411.566C409.936 67.9109 407.613 69.0078 404.599 69.0078C402.348 69.0078 400.529 68.287 399.156 66.8459C397.91 65.5386 397.289 63.918 397.289 61.987C397.289 59.0745 398.504 56.8499 400.944 55.3105C403.385 53.7739 406.813 53.0197 411.229 53.0521V52.6095C411.229 49.4686 409.579 47.8982 406.279 47.8982C403.927 47.8982 401.853 48.4875 400.065 49.6646L398.987 46.1798C401.201 44.8053 403.937 44.1187 407.168 44.1187C413.402 44.1187 416.525 47.4076 416.525 53.9868V62.7737C416.525 65.1608 416.644 67.0613 416.871 68.467Z" fill="white"/>
<path d="M441.506 58.4049V54.4266C441.506 53.7387 441.456 53.1833 441.356 52.7575C441.06 51.4831 440.418 50.4103 439.44 49.5433C438.452 48.6764 437.267 48.2408 435.893 48.2408C433.918 48.2408 432.366 49.0274 431.231 50.5978C430.103 52.1697 429.53 54.1813 429.53 56.6357C429.53 58.9927 430.074 60.9085 431.16 62.3811C432.307 63.95 433.858 64.7358 435.795 64.7358C437.533 64.7358 438.927 64.0804 439.984 62.7737C441.001 61.5626 441.506 60.105 441.506 58.4049ZM446.998 68.467H442.296L442.048 64.6373H441.9C440.398 67.5503 437.839 69.0078 434.243 69.0078C431.369 69.0078 428.977 67.879 427.081 65.6201C425.184 63.3619 424.234 60.4335 424.234 56.833C424.234 52.9704 425.263 49.845 427.327 47.457C429.323 45.231 431.773 44.1187 434.688 44.1187C437.888 44.1187 440.132 45.1986 441.407 47.3583H441.506V33.6614H446.811V62.0369C446.811 64.3602 446.87 66.5023 446.998 68.467Z" fill="white"/>
<path d="M486.84 56.5144C486.84 54.3153 486.366 52.4276 485.418 50.853C484.3 48.9484 482.719 47.9969 480.655 47.9969C478.53 47.9969 476.91 48.9484 475.794 50.853C474.845 52.4276 474.372 54.3477 474.372 56.6103C474.372 58.8123 474.845 60.6971 475.794 62.2748C476.941 64.1768 478.54 65.1284 480.606 65.1284C482.631 65.1284 484.222 64.1598 485.367 62.2247C486.346 60.6167 486.84 58.7136 486.84 56.5144ZM492.332 56.341C492.332 60.0077 491.285 63.0182 489.191 65.3734C486.997 67.7974 484.093 69.0078 480.458 69.0078C476.96 69.0078 474.173 67.8465 472.089 65.5216C470.014 63.1988 468.977 60.2685 468.977 56.7343C468.977 53.0366 470.043 50.01 472.188 47.6529C474.333 45.2959 477.217 44.1187 480.852 44.1187C484.35 44.1187 487.167 45.2803 489.29 47.6036C491.315 49.8619 492.332 52.7744 492.332 56.341Z" fill="white"/>
<path d="M520.841 68.4688H515.545V54.8061C515.545 50.5953 513.945 48.4892 510.733 48.4892C509.162 48.4892 507.888 49.0686 506.91 50.2274C505.931 51.3862 505.438 52.7494 505.438 54.317V68.4688H500.133V51.4355C500.133 49.3392 500.074 47.0668 499.945 44.611H504.598L504.845 48.3383H504.994C505.616 47.1824 506.534 46.2209 507.74 45.4597C509.182 44.5673 510.783 44.1204 512.551 44.1204C514.775 44.1204 516.622 44.8394 518.094 46.2801C519.932 48.0465 520.841 50.6827 520.841 54.183V68.4688Z" fill="white"/>
<path d="M556.516 48.5868H550.678V60.1733C550.678 63.1193 551.715 64.5919 553.769 64.5919C554.718 64.5919 555.508 64.5103 556.131 64.3452L556.269 68.3705C555.222 68.7631 553.848 68.9609 552.149 68.9609C550.055 68.9609 548.425 68.3211 547.248 67.0462C546.063 65.7681 545.48 63.626 545.48 60.6159V48.5868H541.992V44.6114H545.48V40.2412L550.678 38.6722V44.6114H556.516V48.5868Z" fill="white"/>
<path d="M584.583 68.4688H579.278V54.9048C579.278 50.6263 577.677 48.4892 574.476 48.4892C572.017 48.4892 570.337 49.7311 569.417 52.2108C569.259 52.7324 569.17 53.3696 569.17 54.121V68.4688H563.875V33.6631H569.17V48.0423H569.269C570.939 45.4287 573.33 44.1204 576.433 44.1204C578.625 44.1204 580.443 44.8394 581.886 46.2802C583.684 48.079 584.583 50.7476 584.583 54.2817V68.4688Z" fill="white"/>
<path d="M608.476 54.037C608.516 52.4652 608.171 51.1062 607.449 49.9615C606.53 48.4884 605.128 47.7525 603.23 47.7525C601.501 47.7525 600.089 48.4715 599.012 49.9122C598.132 51.0597 597.609 52.4328 597.442 54.037H608.476ZM613.535 55.4101C613.535 56.3588 613.467 57.1596 613.338 57.8151H597.442C597.511 60.1721 598.272 61.9709 599.743 63.214C601.087 64.3286 602.826 64.8848 604.951 64.8848C607.301 64.8848 609.446 64.5092 611.382 63.7559L612.212 67.4377C609.949 68.4185 607.291 68.9102 604.21 68.9102C600.514 68.9102 597.609 67.8231 595.504 65.6458C593.391 63.4691 592.344 60.5485 592.344 56.8833C592.344 53.2828 593.322 50.2872 595.287 47.8991C597.343 45.3461 600.119 44.0703 603.626 44.0703C607.055 44.0703 609.663 45.3461 611.421 47.8991C612.835 49.9291 613.535 52.4328 613.535 55.4101Z" fill="white"/>
</svg>
