<svg width="682" height="203" viewBox="0 0 682 203" fill="none" xmlns="http://www.w3.org/2000/svg">
<path d="M43.7279 202.9C41.9522 202.9 40.2874 202.9 38.5116 202.8C34.8492 202.8 31.2976 202.5 27.7461 201.901C24.4166 201.401 21.198 200.401 18.2015 199.002C15.2049 197.603 12.4303 195.804 10.0996 193.605C7.65793 191.406 5.66021 188.907 4.21742 186.208C2.66363 183.41 1.66477 180.511 1.10985 177.413C0.554923 174.114 0.221967 170.816 0.110983 167.418C0.110983 166.318 0 162.62 0 162.62V40.0802C0 40.0802 -1.69514e-06 36.3821 0.110983 35.3826C0.110983 32.0842 0.443938 28.6859 1.10985 25.4874C1.66477 22.389 2.66363 19.4904 4.21742 16.6918C7.32498 11.1945 12.2083 6.69669 18.2015 3.89807C21.198 2.49876 24.4166 1.49926 27.7461 0.999508C31.2976 0.499754 34.9601 0.199892 38.6226 0.0999416L43.8389 0H638.161L643.488 0.0999416C647.04 0.0999416 650.702 0.399803 654.254 0.999508C657.583 1.49926 660.913 2.49876 663.91 3.89807C669.903 6.69669 674.786 11.1945 677.894 16.6918C679.447 19.4904 680.446 22.389 681.001 25.4874C681.556 28.7858 681.889 32.1841 682 35.4825C682 36.9818 682 38.581 682 40.1802C682 42.1792 682 44.0783 682 45.9773V157.023C682 158.922 682 160.821 682 162.72C682 164.419 682 166.018 682 167.617C681.889 170.916 681.556 174.214 681.001 177.413C680.446 180.511 679.447 183.51 677.894 186.308C676.34 189.007 674.342 191.506 672.011 193.705C669.681 195.903 666.906 197.703 663.91 199.102C660.913 200.501 657.583 201.501 654.254 202C650.702 202.5 647.04 202.8 643.488 202.9C641.824 202.9 640.048 203 638.272 203H631.946L43.7279 202.9Z" fill="black"/>
<path fill-rule="evenodd" clip-rule="evenodd" d="M121.502 63.3008C121.702 63.0008 121.902 62.8008 122.202 62.5008L131.702 53.0008C134.802 49.9008 139.902 49.9008 143.102 53.0008C146.202 56.1008 146.202 61.2008 143.102 64.3008L134.902 72.4008C142.002 79.1008 146.202 87.4008 147.902 97.2008C148.802 102.601 147.102 104.701 141.102 104.701H53.9016C47.5016 104.801 45.3016 102.501 46.4016 96.9008C48.2016 87.9008 51.9016 80.2008 57.6016 74.0008L48.3016 64.8008C45.2016 61.7008 45.2016 56.6008 48.3016 53.5008C51.4016 50.4008 56.5016 50.4008 59.7016 53.5008L69.2016 63.0008C69.6016 63.4008 70.0016 63.9008 70.3016 64.4008C72.1016 63.4008 74.1016 62.5008 76.1016 61.7008C91.8016 55.5008 107.102 56.2008 121.502 63.3008ZM77.6016 86.7008C77.6016 88.9008 75.8016 90.7008 73.6016 90.7008C71.4016 90.7008 69.6016 88.9008 69.6016 86.7008C69.6016 84.5008 71.4016 82.7008 73.6016 82.7008C75.8016 82.7008 77.6016 84.5008 77.6016 86.7008ZM120.602 90.7008C122.802 90.7008 124.602 88.9008 124.602 86.7008C124.602 84.5008 122.802 82.7008 120.602 82.7008C118.402 82.7008 116.602 84.5008 116.602 86.7008C116.602 88.9008 118.402 90.7008 120.602 90.7008Z" fill="#A4C639"/>
<path d="M52.0984 148.898C54.1984 148.898 55.2984 147.798 56.0984 145.098L57.3984 141.198H68.3984L69.5984 145.098C70.3984 147.798 71.5984 148.898 73.6984 148.898C75.9984 148.898 77.4984 147.598 77.4984 145.498C77.4984 144.698 77.2984 143.698 76.8984 142.398L69.6984 121.298C68.3984 117.398 66.5984 115.898 63.0984 115.898C59.5984 115.898 57.7984 117.498 56.4984 121.298L49.1984 142.398C48.5984 143.998 48.3984 144.898 48.3984 145.698C48.3984 147.498 49.8984 148.898 52.0984 148.898ZM58.9984 135.398L62.6984 122.998H63.0984L66.7984 135.398H58.9984Z" fill="#A4C639"/>
<path d="M87.7984 148.798C90.2984 148.798 91.7984 147.198 91.7984 144.498V138.098H97.0984C104.598 138.098 109.198 134.098 109.198 126.998C109.198 120.298 104.698 115.898 97.4984 115.898H89.0984C85.2984 115.898 83.8984 117.398 83.8984 121.298V144.498C83.8984 147.298 85.2984 148.798 87.7984 148.798ZM91.7984 132.298V122.098H96.2984C99.4984 122.098 101.298 123.998 101.298 127.198C101.298 130.998 99.4984 132.298 95.3984 132.298H91.7984Z" fill="#A4C639"/>
<path d="M138.398 148.799C140.698 148.799 142.198 147.299 142.198 145.099C142.198 143.999 141.798 143.199 140.598 141.499L132.398 130.499L140.098 122.199C141.198 121.099 141.498 120.299 141.498 119.299C141.498 117.399 139.998 115.799 137.998 115.799C136.898 115.799 135.998 116.299 134.898 117.499L123.898 129.399H123.398V119.999C123.398 117.299 121.998 115.699 119.398 115.699C116.898 115.699 115.398 117.199 115.398 119.999V144.599C115.398 147.299 116.898 148.899 119.498 148.899C121.998 148.899 123.398 147.399 123.398 144.599V138.499L126.398 135.399L134.398 146.299C135.698 147.999 136.898 148.799 138.398 148.799Z" fill="#A4C639"/>
<path d="M171.398 47.1V76.1H181.898C186.598 76.1 190.198 74.8 192.598 72.2C194.898 69.7 196.098 66.1 196.098 61.6C196.098 57 194.998 53.5 192.698 51C190.198 48.4 186.698 47.1 181.998 47.1H171.398ZM175.898 50.9H181.298C184.998 50.9 187.698 51.8 189.398 53.5C190.998 55.2 191.898 57.9 191.898 61.6C191.898 65.3 190.998 67.9 189.398 69.7C187.698 71.4 184.898 72.3 181.298 72.3H175.998V50.9H175.898ZM209.998 54.5C206.798 54.5 204.198 55.6 202.298 57.7C200.398 59.8 199.398 62.4 199.398 65.6C199.398 68.8 200.298 71.4 202.198 73.4C204.198 75.5 206.698 76.6 209.898 76.6C213.098 76.6 215.698 75.5 217.598 73.4C219.498 71.4 220.398 68.7 220.398 65.6C220.398 62.4 219.398 59.8 217.498 57.7C215.798 55.6 213.198 54.5 209.998 54.5ZM209.998 58.1C211.998 58.1 213.598 58.9 214.698 60.5C215.698 61.8 216.198 63.6 216.198 65.7C216.198 67.8 215.698 69.5 214.698 70.9C213.598 72.4 211.998 73.3 209.998 73.3C207.998 73.3 206.398 72.5 205.298 70.9C204.298 69.6 203.898 67.9 203.898 65.7C203.898 63.6 204.298 61.8 205.298 60.5C206.498 58.8 207.998 58.1 209.998 58.1ZM222.398 55.1L229.598 76.1H233.598L237.998 60.4L242.398 76.1H246.398L253.598 55.1H248.798L244.298 71L239.998 55.1H235.998L231.698 71L227.198 55.1H222.398ZM266.898 54.5C265.598 54.5 264.398 54.7 263.298 55.3C262.198 55.8 261.298 56.6 260.498 57.7V55.1H256.198V76.1H260.498V63.5C260.698 61.8 261.298 60.5 262.298 59.5C263.198 58.6 264.298 58.2 265.498 58.2C268.798 58.2 270.398 60 270.398 63.6V76.2H274.698V63.2C274.798 57.4 272.198 54.5 266.898 54.5ZM280.298 46.5V76.1H284.598V46.5H280.298ZM299.698 54.5C296.498 54.5 293.898 55.6 291.998 57.7C290.098 59.8 289.098 62.4 289.098 65.6C289.098 68.8 289.998 71.4 291.898 73.4C293.898 75.5 296.398 76.6 299.598 76.6C302.798 76.6 305.398 75.5 307.298 73.4C309.198 71.4 310.098 68.7 310.098 65.6C310.098 62.4 309.098 59.8 307.198 57.7C305.498 55.6 302.898 54.5 299.698 54.5ZM299.698 58.1C301.698 58.1 303.298 58.9 304.398 60.5C305.398 61.8 305.898 63.6 305.898 65.7C305.898 67.8 305.398 69.5 304.398 70.9C303.298 72.4 301.698 73.3 299.698 73.3C297.698 73.3 296.098 72.5 294.998 70.9C293.998 69.6 293.598 67.9 293.598 65.7C293.598 63.6 293.998 61.8 294.998 60.5C296.198 58.8 297.698 58.1 299.698 58.1ZM323.898 54.5C321.298 54.5 319.198 54.9 317.598 55.9C315.798 57 314.698 58.7 314.198 60.9L318.498 61.3C318.698 60.1 319.398 59.3 320.298 58.7C321.098 58.2 322.198 58 323.598 58C326.798 58 328.398 59.5 328.398 62.4V63.3L323.698 63.4C320.598 63.5 318.098 64.1 316.398 65.3C314.498 66.6 313.598 68.4 313.598 70.7C313.598 72.4 314.298 73.9 315.598 75C316.798 76.1 318.498 76.7 320.698 76.7C322.598 76.7 324.198 76.3 325.598 75.7C326.798 75.1 327.798 74.2 328.698 73.2V76.2H332.698V62.8C332.698 60.2 331.998 58.3 330.798 57C329.298 55.3 326.998 54.5 323.898 54.5ZM328.398 66.4V67.6C328.398 69.2 327.698 70.6 326.398 71.7C325.098 72.8 323.498 73.4 321.698 73.4C320.598 73.4 319.698 73.1 318.998 72.6C318.298 72.1 317.998 71.4 317.998 70.6C317.998 68 319.998 66.6 323.898 66.5L328.398 66.4ZM352.798 46.5V58.2C351.098 55.7 348.898 54.5 346.298 54.5C343.298 54.5 340.898 55.6 339.098 57.8C337.498 59.8 336.698 62.4 336.698 65.5C336.698 68.7 337.498 71.3 339.198 73.4C340.998 75.6 343.398 76.7 346.498 76.7C349.398 76.7 351.598 75.6 352.998 73.6V76.1H356.998V46.5H352.798ZM347.398 58C348.998 58 350.298 58.6 351.398 59.9C352.498 61.3 352.998 63.1 352.998 65.4V65.8C352.998 67.9 352.598 69.6 351.698 71C350.598 72.5 349.198 73.2 347.298 73.2C345.198 73.2 343.598 72.4 342.598 70.9C341.698 69.6 341.298 67.8 341.298 65.5C341.298 63.2 341.698 61.4 342.598 60.2C343.598 58.7 345.198 58 347.398 58Z" fill="#FAFAFA"/>
<path d="M180.798 132.701L183.298 124.801C185.098 119.301 186.698 114.201 188.298 108.401H188.598C190.298 114.101 191.798 119.301 193.598 124.801L196.098 132.701H180.798ZM202.298 152.201H208.098L191.498 103.901H185.498L168.898 152.201H174.398L179.398 137.001H197.498L202.298 152.201ZM214.698 152.201H220.098V126.101C223.798 122.301 226.498 120.301 230.298 120.301C235.298 120.301 237.398 123.301 237.398 130.201V152.201H242.798V129.601C242.798 120.501 239.298 115.701 231.798 115.701C226.898 115.701 223.198 118.501 219.698 121.801H219.498L218.998 116.601H214.598V152.201H214.698ZM266.998 153.101C271.398 153.101 275.198 150.801 278.098 148.001H278.198L278.698 152.301H283.098V99.8008H277.698V113.801L277.998 120.001C274.698 117.401 271.998 115.801 267.698 115.801C259.498 115.801 252.098 123.101 252.098 134.601C252.198 146.401 257.998 153.101 266.998 153.101ZM268.098 148.601C261.498 148.601 257.798 143.301 257.798 134.501C257.798 126.201 262.498 120.301 268.598 120.301C271.698 120.301 274.498 121.401 277.798 124.301V143.601C274.698 146.801 271.598 148.601 268.098 148.601ZM295.798 152.201H301.198V129.001C303.698 122.801 307.398 120.601 310.398 120.601C311.798 120.601 312.598 120.801 313.798 121.201L314.898 116.501C313.698 115.901 312.598 115.701 311.098 115.701C306.998 115.701 303.398 118.701 300.898 123.201H300.698L300.198 116.701H295.798V152.201ZM333.898 153.101C342.698 153.101 350.398 146.201 350.398 134.501C350.398 122.601 342.598 115.701 333.898 115.701C325.198 115.701 317.398 122.601 317.398 134.501C317.398 146.201 325.098 153.101 333.898 153.101ZM333.898 148.601C327.498 148.601 322.998 142.901 322.998 134.501C322.998 126.001 327.398 120.201 333.898 120.201C340.398 120.201 344.898 125.901 344.898 134.501C344.898 142.901 340.398 148.601 333.898 148.601ZM360.198 152.201H365.598V116.601H360.198V152.201ZM362.898 109.001C364.998 109.001 366.798 107.501 366.798 105.401C366.798 103.101 364.998 101.701 362.898 101.701C360.598 101.701 358.998 103.101 358.998 105.401C358.998 107.401 360.598 109.001 362.898 109.001ZM390.098 153.101C394.498 153.101 398.298 150.801 401.198 148.001H401.298L401.798 152.301H406.198V99.8008H400.798V113.801L401.098 120.001C397.798 117.401 395.098 115.801 390.798 115.801C382.598 115.801 375.198 123.101 375.198 134.601C375.298 146.401 381.098 153.101 390.098 153.101ZM391.198 148.601C384.598 148.601 380.898 143.301 380.898 134.501C380.898 126.201 385.598 120.301 391.698 120.301C394.798 120.301 397.598 121.401 400.898 124.301V143.601C397.698 146.801 394.698 148.601 391.198 148.601ZM439.598 132.701L442.098 124.801C443.898 119.301 445.498 114.201 447.098 108.401H447.398C449.098 114.101 450.598 119.301 452.398 124.801L454.898 132.701H439.598ZM461.098 152.201H466.898L450.298 103.901H444.298L427.698 152.201H433.198L438.198 137.001H456.298L461.098 152.201ZM473.998 152.201H479.498V132.701H487.698C498.398 132.701 505.498 127.901 505.498 117.901C505.498 107.501 498.398 103.901 487.398 103.901H473.898V152.201H473.998ZM479.498 128.201V108.301H486.698C495.598 108.301 500.098 110.601 500.098 117.901C500.098 125.101 495.898 128.201 486.998 128.201H479.498ZM515.598 152.201H521.098V136.601L529.798 126.401L544.698 152.101H550.898L533.398 122.101L548.698 103.801H542.398L521.398 128.701H521.298V103.901H515.798V152.201H515.598Z" fill="#FAFAFA"/>
</svg>
