<svg width="682" height="203" viewBox="0 0 682 203" fill="none" xmlns="http://www.w3.org/2000/svg">
<path d="M656.741 202.074H25.2591C11.3666 202.074 0 190.708 0 176.816V25.2595C0 11.367 11.3666 0.000749265 25.2591 0.000749265H656.741C670.634 0.000749265 682 11.367 682 25.2595V176.816C682 190.708 670.634 202.074 656.741 202.074Z" fill="#100F0D"/>
<path d="M656.741 0.000398336H25.2591C11.3666 0.000398336 0 11.3667 0 25.2592V176.816C0 190.708 11.3666 202.074 25.2591 202.074H656.741C670.634 202.074 682 190.708 682 176.816V25.2592C682 11.3667 670.634 0.000398336 656.741 0.000398336ZM656.741 4.0395C668.44 4.0395 677.957 13.5587 677.957 25.2592V176.816C677.957 188.514 668.44 198.034 656.741 198.034H25.2591C13.5592 198.034 4.04126 188.514 4.04126 176.816V25.2592C4.04126 13.5587 13.5592 4.0395 25.2591 4.0395H656.741Z" fill="black"/>
<path d="M239.554 51.7454C239.554 55.9786 238.299 59.3493 235.789 61.863C232.938 64.8528 229.222 66.3477 224.653 66.3477C220.278 66.3477 216.559 64.833 213.499 61.8001C210.435 58.7654 208.906 55.0029 208.906 50.5165C208.906 46.0264 210.435 42.2676 213.499 39.2328C216.559 36.1999 220.278 34.6816 224.653 34.6816C226.825 34.6816 228.902 35.1075 230.875 35.9538C232.848 36.8018 234.433 37.9284 235.617 39.3406L232.952 42.007C230.945 39.6084 228.182 38.4099 224.653 38.4099C221.462 38.4099 218.704 39.5293 216.375 41.7735C214.047 44.0194 212.882 46.9319 212.882 50.5165C212.882 54.101 214.047 57.0135 216.375 59.2595C218.704 61.5036 221.462 62.623 224.653 62.623C228.038 62.623 230.861 61.4964 233.119 59.2397C234.585 57.7682 235.434 55.7234 235.66 53.0984H224.653V49.4582H239.341C239.483 50.2505 239.554 51.0106 239.554 51.7454Z" fill="white"/>
<path d="M239.553 51.7455H239.374C239.372 55.9445 238.136 59.2595 235.662 61.7372L235.66 61.739H235.658C232.841 64.6929 229.184 66.1662 224.653 66.168C220.319 66.1662 216.656 64.6749 213.626 61.6725C210.595 58.6684 209.088 54.9634 209.086 50.5165C209.088 46.0677 210.595 42.3646 213.626 39.3622C216.656 36.358 220.319 34.8649 224.653 34.8613C226.802 34.8613 228.854 35.2818 230.805 36.1173C232.756 36.9581 234.316 38.0686 235.478 39.4556L235.617 39.3407L235.489 39.2131L232.825 41.8795L232.952 42.007L233.091 41.8902C231.049 39.4502 228.221 38.2285 224.653 38.2302C221.421 38.2285 218.609 39.3712 216.251 41.6441C213.885 43.9224 212.701 46.8942 212.703 50.5165C212.701 54.1387 213.885 57.1106 216.251 59.387C218.609 61.6617 221.421 62.8045 224.653 62.8027C228.078 62.8045 230.956 61.6563 233.247 59.3655C234.749 57.8598 235.611 55.7684 235.84 53.1146L235.856 52.9187H224.833V49.6378H239.341V49.4582L239.164 49.4905C239.306 50.2721 239.374 51.0214 239.374 51.7455H239.553H239.733C239.733 50.998 239.663 50.2272 239.518 49.4258L239.491 49.2785H224.473V53.2781H235.66V53.0984L235.482 53.084C235.256 55.6785 234.422 57.6765 232.992 59.1122C230.764 61.3347 227.999 62.4415 224.653 62.4433C221.505 62.4415 218.801 61.3437 216.501 59.1301C214.208 56.9165 213.064 54.0633 213.062 50.5165C213.064 46.9715 214.208 44.1164 216.501 41.9046C218.801 39.6892 221.505 38.5914 224.653 38.5896C228.142 38.5914 230.839 39.7665 232.814 42.122L232.94 42.2711L235.859 39.3514L235.753 39.2239C234.55 37.7883 232.94 36.6455 230.947 35.7885C228.951 34.9332 226.849 34.502 224.653 34.502C220.237 34.5002 216.462 36.04 213.373 39.1071C210.277 42.1705 208.725 45.9868 208.727 50.5165C208.725 55.0443 210.277 58.8624 213.373 61.9277C216.462 64.9929 220.237 66.5291 224.653 66.5273C229.26 66.5291 233.035 65.0145 235.919 61.987L235.789 61.863L235.915 61.9905C238.465 59.4409 239.735 56.0128 239.733 51.7455H239.553Z" fill="white"/>
<path d="M262.837 39.0892H249.032V48.7H261.48V52.3403H249.032V61.9511H262.837V65.6758H245.141V35.3645H262.837V39.0892Z" fill="white"/>
<path d="M262.837 39.0892V38.9095H248.853V48.8797H261.301V52.1606H248.853V62.1308H262.657V65.4961H245.32V35.5442H262.657V39.0892H262.837H263.017V35.1849H244.961V65.8555H263.017V61.7714H249.212V52.52H261.66V48.5204H249.212V39.2689H263.017V39.0892H262.837Z" fill="white"/>
<path d="M279.254 65.6758H275.357V39.0892H266.891V35.3645H287.72V39.0892H279.254V65.6758Z" fill="white"/>
<path d="M279.254 65.6758V65.4961H275.537V38.9095H267.07V35.5442H287.541V38.9095H279.074V65.6758H279.254H279.434V39.2689H287.9V35.1849H266.711V39.2689H275.177V65.8555H279.434V65.6758H279.254Z" fill="white"/>
<path d="M302.789 65.6758V35.3645H306.683V65.6758H302.789Z" fill="white"/>
<path d="M302.789 65.6758H302.969V35.5442H306.503V65.4961H302.789V65.6758V65.8555H306.862V35.1849H302.609V65.8555H302.789V65.6758Z" fill="white"/>
<path d="M323.963 65.6758H320.066V39.0892H311.602V35.3645H332.43V39.0892H323.963V65.6758Z" fill="white"/>
<path d="M323.963 65.6758V65.4961H320.246V38.9095H311.781V35.5442H332.25V38.9095H323.784V65.6758H323.963H324.143V39.2689H332.609V35.1849H311.422V39.2689H319.886V65.8555H324.143V65.6758H323.963Z" fill="white"/>
<path d="M352.521 59.2163C354.765 61.4892 357.509 62.623 360.754 62.623C364.001 62.623 366.748 61.4892 368.988 59.2163C371.233 56.9452 372.357 54.0435 372.357 50.5165C372.357 46.9894 371.233 44.0877 368.988 41.8166C366.748 39.5437 364.001 38.4099 360.754 38.4099C357.509 38.4099 354.765 39.5437 352.521 41.8166C350.281 44.0877 349.156 46.9894 349.156 50.5165C349.156 54.0435 350.281 56.9452 352.521 59.2163ZM371.87 61.7552C368.89 64.8186 365.185 66.3477 360.754 66.3477C356.325 66.3477 352.62 64.8186 349.645 61.7552C346.664 58.6935 345.18 54.9472 345.18 50.5165C345.18 46.0857 346.664 42.3394 349.645 39.2778C352.62 36.2143 356.325 34.6816 360.754 34.6816C365.16 34.6816 368.856 36.2215 371.851 39.2975C374.841 42.3736 376.335 46.1126 376.335 50.5165C376.335 54.9472 374.844 58.6935 371.87 61.7552Z" fill="white"/>
<path d="M352.521 59.2164L352.394 59.3421C354.667 61.6474 357.466 62.8045 360.754 62.8027C364.042 62.8045 366.847 61.6474 369.116 59.3421C371.396 57.0387 372.539 54.0812 372.537 50.5165C372.539 46.9517 371.396 43.9942 369.116 41.689C366.847 39.3856 364.042 38.2285 360.754 38.2302C357.466 38.2285 354.667 39.3856 352.394 41.689C350.119 43.9942 348.974 46.9517 348.976 50.5165C348.974 54.0812 350.119 57.0387 352.392 59.3421L352.521 59.2164L352.649 59.0906C350.442 56.8518 349.337 54.0058 349.336 50.5165C349.337 47.0272 350.442 44.1811 352.649 41.9423C354.864 39.7036 357.55 38.5914 360.754 38.5896C363.959 38.5914 366.651 39.7036 368.861 41.9423C371.071 44.1811 372.178 47.0272 372.178 50.5165C372.178 54.0058 371.071 56.8518 368.861 59.0906C366.651 61.3293 363.959 62.4415 360.754 62.4433C357.55 62.4415 354.864 61.3293 352.649 59.0906L352.521 59.2164ZM371.87 61.7552L371.741 61.6294C368.791 64.6605 365.143 66.1662 360.754 66.168C356.364 66.1662 352.717 64.6605 349.774 61.6294C346.826 58.5983 345.361 54.9077 345.359 50.5165C345.361 46.127 346.826 42.4347 349.774 39.4035C352.717 36.3724 356.366 34.8649 360.754 34.8613C365.118 34.8649 368.757 36.3796 371.721 39.4233C374.679 42.4688 376.154 46.1539 376.156 50.5165C376.154 54.9059 374.684 58.5983 371.741 61.6294L371.87 61.7552L371.998 61.8809C375.004 58.7887 376.515 54.9868 376.515 50.5165C376.515 46.0731 375 42.2783 371.978 39.1717C368.954 36.0634 365.203 34.5002 360.754 34.502C356.284 34.5002 352.521 36.0562 349.515 39.1538C346.504 42.2442 344.998 46.0461 345 50.5165C344.998 54.9868 346.504 58.7887 349.515 61.8809C352.521 64.9767 356.284 66.5291 360.754 66.5273C365.226 66.5291 368.988 64.9767 371.998 61.8809L371.87 61.7552Z" fill="white"/>
<path d="M381.789 65.6758V35.3645H386.529L401.26 58.9451H401.429L401.26 53.1021V35.3645H405.158V65.6758H401.093L385.681 40.9542H385.514L385.681 46.7955V65.6758H381.789Z" fill="white"/>
<path d="M381.797 65.6758H381.977V35.5442H386.438L401.169 59.1248H401.437H401.622L401.448 53.1003V35.5442H404.986V65.4961H401.2L385.789 40.7746H385.522H385.336L385.509 46.7973V65.4961H381.797V65.6758V65.8555H385.868V46.7937L385.701 40.9489L385.522 40.9542V41.1339H385.59L401.001 65.8555H405.345V35.1849H401.089V53.1057L401.257 58.9488L401.437 58.9452V58.7655H401.369L386.637 35.1849H381.617V65.8555H381.797V65.6758Z" fill="white"/>
<path d="M540.226 151.556H549.65V88.4015H540.226V151.556ZM625.132 111.151L614.326 138.533H614.001L602.787 111.151H592.632L609.45 149.419L599.862 170.708H609.694L635.612 111.151H625.132ZM571.669 144.383C568.581 144.383 564.276 142.84 564.276 139.019C564.276 134.145 569.637 132.277 574.269 132.277C578.413 132.277 580.362 133.169 582.881 134.389C582.15 140.238 577.114 144.383 571.669 144.383ZM572.807 109.77C565.981 109.77 558.912 112.776 555.987 119.439L564.357 122.933C566.144 119.439 569.475 118.301 572.968 118.301C577.845 118.301 582.8 121.226 582.881 126.426V127.076C581.176 126.101 577.52 124.638 573.051 124.638C564.031 124.638 554.85 129.596 554.85 138.858C554.85 147.308 562.244 152.75 570.532 152.75C576.869 152.75 580.362 149.908 582.558 146.577H582.881V151.451H591.982V127.239C591.982 116.027 583.612 109.77 572.807 109.77ZM514.55 118.84H501.145V97.1909H514.55C521.597 97.1909 525.601 103.026 525.601 108.015C525.601 112.91 521.597 118.84 514.55 118.84ZM514.306 88.4015H491.719V151.556H501.145V127.629H514.306C524.756 127.629 535.026 120.064 535.026 108.015C535.026 95.9653 524.756 88.4015 514.306 88.4015ZM391.137 144.394C384.627 144.394 379.174 138.941 379.174 131.453C379.174 123.885 384.627 118.35 391.137 118.35C397.567 118.35 402.613 123.885 402.613 131.453C402.613 138.941 397.567 144.394 391.137 144.394ZM401.962 114.688H401.637C399.52 112.165 395.451 109.886 390.323 109.886C379.58 109.886 369.732 119.327 369.732 131.453C369.732 143.499 379.58 152.859 390.323 152.859C395.451 152.859 399.52 150.58 401.637 147.974H401.962V151.069C401.962 159.289 397.567 163.684 390.486 163.684C384.708 163.684 381.127 159.533 379.663 156.033L371.441 159.45C373.802 165.148 380.069 172.148 390.486 172.148C401.554 172.148 410.915 165.637 410.915 149.766V111.188H401.962V114.688ZM417.425 151.556H426.867V88.4001H417.425V151.556ZM440.785 130.722C440.54 122.42 447.213 118.188 452.014 118.188C455.759 118.188 458.934 120.059 459.992 122.745L440.785 130.722ZM470.083 123.559C468.293 118.757 462.84 109.886 451.689 109.886C440.621 109.886 431.425 118.595 431.425 131.373C431.425 143.418 440.54 152.859 452.747 152.859C462.596 152.859 468.293 146.835 470.652 143.337L463.329 138.454C460.887 142.035 457.55 144.394 452.747 144.394C447.947 144.394 444.527 142.196 442.33 137.884L471.06 126.001L470.083 123.559ZM241.192 116.478V125.594H263.005C262.353 130.722 260.646 134.465 258.04 137.07C254.865 140.243 249.901 143.744 241.192 143.744C227.763 143.744 217.265 132.918 217.265 119.489C217.265 106.061 227.763 95.2362 241.192 95.2362C248.437 95.2362 253.726 98.0849 257.633 101.747L264.063 95.3176C258.61 90.1091 251.367 86.1203 241.192 86.1203C222.799 86.1203 207.336 101.097 207.336 119.489C207.336 137.884 222.799 152.859 241.192 152.859C251.123 152.859 258.61 149.603 264.469 143.499C270.492 137.476 272.364 129.012 272.364 122.175C272.364 120.059 272.202 118.107 271.875 116.478H241.192ZM297.161 144.394C290.65 144.394 285.035 139.023 285.035 131.373C285.035 123.64 290.65 118.35 297.161 118.35C303.673 118.35 309.287 123.64 309.287 131.373C309.287 139.023 303.673 144.394 297.161 144.394ZM297.161 109.886C285.277 109.886 275.593 118.92 275.593 131.373C275.593 143.744 285.277 152.859 297.161 152.859C309.043 152.859 318.728 143.744 318.728 131.373C318.728 118.92 309.043 109.886 297.161 109.886ZM344.211 144.394C337.699 144.394 332.085 139.023 332.085 131.373C332.085 123.64 337.699 118.35 344.211 118.35C350.722 118.35 356.337 123.64 356.337 131.373C356.337 139.023 350.722 144.394 344.211 144.394ZM344.211 109.886C332.327 109.886 322.643 118.92 322.643 131.373C322.643 143.744 332.327 152.859 344.211 152.859C356.093 152.859 365.779 143.744 365.779 131.373C365.779 118.92 356.093 109.886 344.211 109.886Z" fill="white"/>
<mask id="mask0_2464_1623" style="mask-type:luminance" maskUnits="userSpaceOnUse" x="50" y="38" width="66" height="126">
<path d="M53.0883 163.625L52.7135 163.264C51.2444 161.71 50.375 159.295 50.375 156.167V156.903V45.1759C50.375 45.1669 50.375 45.1579 50.3757 45.1472C50.375 45.1579 50.375 45.1687 50.375 45.1777V45.9162C50.375 42.5293 51.3884 39.9779 53.0841 38.4489L115.674 101.04L53.0883 163.625Z" fill="white"/>
</mask>
<g mask="url(#mask0_2464_1623)">
<path d="M53.0883 163.625L52.7135 163.264C51.2444 161.71 50.375 159.295 50.375 156.167V156.903V45.1759C50.375 45.1669 50.375 45.1579 50.3757 45.1472C50.375 45.1579 50.375 45.1687 50.375 45.1777V45.9162C50.375 42.5293 51.3884 39.9779 53.0841 38.4489L115.674 101.04L53.0883 163.625Z" fill="url(#paint0_linear_2464_1623)"/>
</g>
<mask id="mask1_2464_1623" style="mask-type:luminance" maskUnits="userSpaceOnUse" x="115" y="80" width="53" height="43">
<path d="M136.54 122.648L137.017 122.377L161.734 108.333C164.009 107.04 165.551 105.482 166.359 103.831C165.551 105.484 164.009 107.042 161.734 108.335L137.017 122.38L136.54 122.648ZM136.546 121.907L115.68 101.039L136.546 80.1706L161.734 94.4822C164.935 96.2999 166.729 98.6413 167.03 101.035C167.03 101.038 167.03 101.042 167.03 101.044C166.729 103.434 164.935 105.776 161.734 107.594L136.546 121.907Z" fill="white"/>
</mask>
<g mask="url(#mask1_2464_1623)">
<path d="M136.54 122.648L137.017 122.377L161.734 108.333C164.009 107.04 165.551 105.482 166.359 103.831C165.551 105.484 164.009 107.042 161.734 108.335L137.017 122.38L136.54 122.648ZM136.546 121.907L115.68 101.039L136.546 80.1706L161.734 94.4822C164.935 96.2999 166.729 98.6413 167.03 101.035C167.03 101.038 167.03 101.042 167.03 101.044C166.729 103.434 164.935 105.776 161.734 107.594L136.546 121.907Z" fill="url(#paint1_linear_2464_1623)"/>
</g>
<mask id="mask2_2464_1623" style="mask-type:luminance" maskUnits="userSpaceOnUse" x="52" y="101" width="85" height="66">
<path d="M57.5534 166.016C55.8059 166.016 54.2807 165.446 53.091 164.373L53.0932 164.371C54.2828 165.446 55.8093 166.016 57.5585 166.016C57.8251 166.016 58.0968 166.003 58.374 165.976C58.0954 166.003 57.8215 166.016 57.5534 166.016ZM57.557 165.277C55.8086 165.277 54.2828 164.707 53.0932 163.635L53.0917 163.633L115.678 101.047L136.544 121.916L63.2154 163.581C61.187 164.733 59.2654 165.277 57.557 165.277ZM53.0714 164.355C52.9613 164.256 52.8546 164.152 52.75 164.043L53.0714 164.355Z" fill="white"/>
</mask>
<g mask="url(#mask2_2464_1623)">
<path d="M57.5534 166.016C55.8059 166.016 54.2807 165.446 53.091 164.373L53.0932 164.371C54.2828 165.446 55.8093 166.016 57.5585 166.016C57.8251 166.016 58.0968 166.003 58.374 165.976C58.0954 166.003 57.8215 166.016 57.5534 166.016ZM57.557 165.277C55.8086 165.277 54.2828 164.707 53.0932 163.635L53.0917 163.633L115.678 101.047L136.544 121.916L63.2154 163.581C61.187 164.733 59.2654 165.277 57.557 165.277ZM53.0714 164.355C52.9613 164.256 52.8546 164.152 52.75 164.043L53.0714 164.355Z" fill="url(#paint2_linear_2464_1623)"/>
</g>
<mask id="mask3_2464_1623" style="mask-type:luminance" maskUnits="userSpaceOnUse" x="53" y="36" width="85" height="66">
<path d="M115.676 101.043L53.0859 38.4521C54.2741 37.3795 55.7985 36.8117 57.5455 36.8117C59.2572 36.8117 61.1818 37.3579 63.2137 38.5114L136.542 80.1747L115.676 101.043ZM137.013 79.7044L63.2137 37.7747C61.1818 36.6194 59.2565 36.0732 57.5448 36.0732C57.5307 36.0732 57.5167 36.0732 57.502 36.0732C57.5189 36.0732 57.5349 36.0732 57.5518 36.0732C59.2608 36.0732 61.1839 36.6194 63.2137 37.7712L137.013 79.7038" fill="white"/>
</mask>
<g mask="url(#mask3_2464_1623)">
<path d="M115.676 101.043L53.0859 38.4521C54.2741 37.3795 55.7985 36.8117 57.5455 36.8117C59.2572 36.8117 61.1818 37.3579 63.2137 38.5114L136.542 80.1747L115.676 101.043ZM137.013 79.7044L63.2137 37.7747C61.1818 36.6194 59.2565 36.0732 57.5448 36.0732C57.5307 36.0732 57.5167 36.0732 57.502 36.0732C57.5189 36.0732 57.5349 36.0732 57.5518 36.0732C59.2608 36.0732 61.1839 36.6194 63.2137 37.7712L137.013 79.7038" fill="url(#paint3_linear_2464_1623)"/>
</g>
<path d="M58.368 165.969C59.8636 165.824 61.4982 165.282 63.2094 164.311L136.532 122.65V122.65L63.2094 164.311C61.4982 165.285 59.8636 165.824 58.368 165.969ZM53.0843 164.368L53.0654 164.348C53.0717 164.356 53.0787 164.361 53.085 164.366L53.0843 164.368ZM52.744 164.036L52.7109 164.004L52.7117 164.001C52.723 164.014 52.7334 164.025 52.744 164.036Z" fill="#100F0D"/>
<mask id="mask4_2464_1623" style="mask-type:luminance" maskUnits="userSpaceOnUse" x="136" y="122" width="1" height="1">
<path d="M136.523 122.648L137 122.377L136.523 122.648" fill="white"/>
</mask>
<g mask="url(#mask4_2464_1623)">
<path d="M136.523 122.648L137 122.377L136.523 122.648" fill="url(#paint4_linear_2464_1623)"/>
</g>
<mask id="mask5_2464_1623" style="mask-type:luminance" maskUnits="userSpaceOnUse" x="52" y="121" width="86" height="46">
<path d="M57.5518 166.016C55.8026 166.016 54.2761 165.446 53.0865 164.371L53.0843 164.373C53.078 164.368 53.071 164.363 53.0647 164.355L52.7433 164.043C52.7327 164.031 52.7223 164.021 52.7109 164.008L53.0865 163.635C54.2761 164.707 55.8019 165.277 57.5503 165.277C59.2587 165.277 61.1803 164.733 63.2087 163.581L136.537 121.916L137.008 122.386L136.532 122.656L63.2087 164.318C61.4974 165.289 59.8629 165.83 58.3673 165.976C58.0901 166.003 57.8184 166.016 57.5518 166.016Z" fill="white"/>
</mask>
<g mask="url(#mask5_2464_1623)">
<path d="M57.5518 166.016C55.8026 166.016 54.2761 165.446 53.0865 164.371L53.0843 164.373C53.078 164.368 53.071 164.363 53.0647 164.355L52.7433 164.043C52.7327 164.031 52.7223 164.021 52.7109 164.008L53.0865 163.635C54.2761 164.707 55.8019 165.277 57.5503 165.277C59.2587 165.277 61.1803 164.733 63.2087 163.581L136.537 121.916L137.008 122.386L136.532 122.656L63.2087 164.318C61.4974 165.289 59.8629 165.83 58.3673 165.976C58.0901 166.003 57.8184 166.016 57.5518 166.016Z" fill="url(#paint5_linear_2464_1623)"/>
</g>
<path d="M52.7135 164.004C51.2444 162.448 50.375 160.035 50.375 156.907V156.905C50.375 160.035 51.2444 162.446 52.7135 164.002H52.7142L52.7135 164.004Z" fill="#100F0D"/>
<mask id="mask6_2464_1623" style="mask-type:luminance" maskUnits="userSpaceOnUse" x="50" y="156" width="4" height="8">
<path d="M52.7135 163.996C51.2444 162.44 50.375 160.029 50.375 156.899V156.163C50.375 159.291 51.2444 161.705 52.7135 163.26L53.0883 163.621L52.7135 163.996Z" fill="white"/>
</mask>
<g mask="url(#mask6_2464_1623)">
<path d="M52.7135 163.996C51.2444 162.44 50.375 160.029 50.375 156.899V156.163C50.375 159.291 51.2444 161.705 52.7135 163.26L53.0883 163.621L52.7135 163.996Z" fill="url(#paint6_linear_2464_1623)"/>
</g>
<mask id="mask7_2464_1623" style="mask-type:luminance" maskUnits="userSpaceOnUse" x="52" y="163" width="2" height="1">
<path d="M52.7195 163.996H52.7188L53.0936 163.621L53.095 163.623L52.7195 163.996Z" fill="white"/>
</mask>
<g mask="url(#mask7_2464_1623)">
<path d="M52.7195 163.996H52.7188L53.0936 163.621L53.095 163.623L52.7195 163.996Z" fill="url(#paint7_linear_2464_1623)"/>
</g>
<path d="M166.359 103.832C166.805 102.923 167.03 101.984 167.03 101.046C167.03 101.044 167.03 101.044 167.03 101.042C167.03 101.981 166.807 102.921 166.359 103.832Z" fill="#100F0D"/>
<mask id="mask8_2464_1623" style="mask-type:luminance" maskUnits="userSpaceOnUse" x="136" y="101" width="32" height="22">
<path d="M137.018 122.383L136.547 121.913L161.736 107.6C164.936 105.782 166.731 103.439 167.031 101.05C167.031 101.988 166.806 102.927 166.36 103.836C165.552 105.488 164.01 107.045 161.736 108.338L137.018 122.383Z" fill="white"/>
</mask>
<g mask="url(#mask8_2464_1623)">
<path d="M137.018 122.383L136.547 121.913L161.736 107.6C164.936 105.782 166.731 103.439 167.031 101.05C167.031 101.988 166.806 102.927 166.36 103.836C165.552 105.488 164.01 107.045 161.736 108.338L137.018 122.383Z" fill="url(#paint8_linear_2464_1623)"/>
</g>
<path d="M167.023 101.043C167.023 101.042 167.023 101.04 167.023 101.039C167.021 98.3964 165.255 95.7551 161.728 93.7507L137.01 79.7058L137.008 79.7051L137.01 79.7038L161.728 93.7485C165.258 95.7539 167.026 98.3998 167.023 101.043Z" fill="#3A3A3B"/>
<mask id="mask9_2464_1623" style="mask-type:luminance" maskUnits="userSpaceOnUse" x="136" y="79" width="32" height="23">
<path d="M167.031 101.043C166.731 98.6495 164.936 96.3082 161.736 94.4904L136.547 80.1789L137.016 79.7092L137.018 79.7099L161.736 93.7548C165.263 95.7592 167.029 98.4005 167.031 101.043Z" fill="white"/>
</mask>
<g mask="url(#mask9_2464_1623)">
<path d="M167.031 101.043C166.731 98.6495 164.936 96.3082 161.736 94.4904L136.547 80.1789L137.016 79.7092L137.018 79.7099L161.736 93.7548C165.263 95.7592 167.029 98.4005 167.031 101.043Z" fill="url(#paint9_linear_2464_1623)"/>
</g>
<path d="M50.4002 44.2648C50.4002 44.2612 50.4002 44.2612 50.4009 44.2576C50.4002 44.2594 50.4002 44.2612 50.4002 44.2648ZM50.405 44.1785C50.7272 39.0542 53.5368 36.0967 57.4995 36.0751C55.7728 36.0859 54.2653 36.6537 53.0868 37.7174H53.0861L53.0694 37.7336C52.9465 37.845 52.8279 37.9617 52.7128 38.0839C51.4045 39.4674 50.5721 41.5337 50.405 44.1785Z" fill="#3A3A3B"/>
<mask id="mask10_2464_1623" style="mask-type:luminance" maskUnits="userSpaceOnUse" x="50" y="37" width="4" height="9">
<path d="M50.375 45.9219V45.1834C50.375 45.1744 50.375 45.1636 50.3757 45.1529V45.1511C50.3757 44.8492 50.3847 44.5528 50.4009 44.2653C50.4009 44.2617 50.4009 44.2599 50.4016 44.2581C50.4016 44.2527 50.4023 44.2455 50.403 44.2383C50.403 44.2329 50.403 44.2275 50.4037 44.2222C50.4037 44.2168 50.4045 44.2132 50.4045 44.2096C50.4052 44.2006 50.4052 44.1916 50.4057 44.1826C50.4057 44.1808 50.4057 44.1808 50.4057 44.179C50.5728 41.5342 51.4053 39.4679 52.7135 38.0844L53.0841 38.4546C51.3884 39.9836 50.375 42.535 50.375 45.9219ZM53.0701 37.7341L53.0868 37.7179C53.082 37.7233 53.0757 37.7287 53.0701 37.7341Z" fill="white"/>
</mask>
<g mask="url(#mask10_2464_1623)">
<path d="M50.375 45.9219V45.1834C50.375 45.1744 50.375 45.1636 50.3757 45.1529V45.1511C50.3757 44.8492 50.3847 44.5528 50.4009 44.2653C50.4009 44.2617 50.4009 44.2599 50.4016 44.2581C50.4016 44.2527 50.4023 44.2455 50.403 44.2383C50.403 44.2329 50.403 44.2275 50.4037 44.2222C50.4037 44.2168 50.4045 44.2132 50.4045 44.2096C50.4052 44.2006 50.4052 44.1916 50.4057 44.1826C50.4057 44.1808 50.4057 44.1808 50.4057 44.179C50.5728 41.5342 51.4053 39.4679 52.7135 38.0844L53.0841 38.4546C51.3884 39.9836 50.375 42.535 50.375 45.9219ZM53.0701 37.7341L53.0868 37.7179C53.082 37.7233 53.0757 37.7287 53.0701 37.7341Z" fill="url(#paint10_linear_2464_1623)"/>
</g>
<mask id="mask11_2464_1623" style="mask-type:luminance" maskUnits="userSpaceOnUse" x="52" y="36" width="86" height="45">
<path d="M136.546 80.168L63.2172 38.5046C61.1852 37.3511 59.2607 36.8049 57.549 36.8049C55.802 36.8049 54.2776 37.3727 53.0894 38.4454L52.7188 38.0752C52.8339 37.953 52.9525 37.8362 53.0754 37.7249C53.081 37.7195 53.0873 37.7141 53.0928 37.7087C54.2713 36.645 55.7788 36.0772 57.5055 36.0664C57.5202 36.0664 57.5342 36.0664 57.5483 36.0664C59.26 36.0664 61.1852 36.6127 63.2172 37.768L137.016 79.6976L137.015 79.6983L136.546 80.168Z" fill="white"/>
</mask>
<g mask="url(#mask11_2464_1623)">
<path d="M136.546 80.168L63.2172 38.5046C61.1852 37.3511 59.2607 36.8049 57.549 36.8049C55.802 36.8049 54.2776 37.3727 53.0894 38.4454L52.7188 38.0752C52.8339 37.953 52.9525 37.8362 53.0754 37.7249C53.081 37.7195 53.0873 37.7141 53.0928 37.7087C54.2713 36.645 55.7788 36.0772 57.5055 36.0664C57.5202 36.0664 57.5342 36.0664 57.5483 36.0664C59.26 36.0664 61.1852 36.6127 63.2172 37.768L137.016 79.6976L137.015 79.6983L136.546 80.168Z" fill="url(#paint11_linear_2464_1623)"/>
</g>
<defs>
<linearGradient id="paint0_linear_2464_1623" x1="110.124" y1="43.9973" x2="25.3419" y2="128.779" gradientUnits="userSpaceOnUse">
<stop stop-color="#5797D7"/>
<stop offset="0.00657445" stop-color="#5898D8"/>
<stop offset="0.2601" stop-color="#60BFEE"/>
<stop offset="0.5122" stop-color="#63CDF4"/>
<stop offset="0.7604" stop-color="#6CCFEC"/>
<stop offset="1" stop-color="#6FD0EA"/>
</linearGradient>
<linearGradient id="paint1_linear_2464_1623" x1="170.927" y1="101.041" x2="48.6875" y2="101.041" gradientUnits="userSpaceOnUse">
<stop stop-color="#F9E105"/>
<stop offset="0.4087" stop-color="#FAB60A"/>
<stop offset="0.7754" stop-color="#F89B0F"/>
<stop offset="1" stop-color="#F79110"/>
</linearGradient>
<linearGradient id="paint2_linear_2464_1623" x1="125.421" y1="112.642" x2="10.4492" y2="227.613" gradientUnits="userSpaceOnUse">
<stop stop-color="#EF2A43"/>
<stop offset="1" stop-color="#C31362"/>
</linearGradient>
<linearGradient id="paint3_linear_2464_1623" x1="36.862" y1="0.890943" x2="88.2015" y2="52.2305" gradientUnits="userSpaceOnUse">
<stop stop-color="#3DA56B"/>
<stop offset="0.0685" stop-color="#3CAD6A"/>
<stop offset="0.4762" stop-color="#4EBF65"/>
<stop offset="0.8009" stop-color="#5AC35D"/>
<stop offset="1" stop-color="#60C55A"/>
</linearGradient>
<linearGradient id="paint4_linear_2464_1623" x1="170.91" y1="101.041" x2="48.6698" y2="101.041" gradientUnits="userSpaceOnUse">
<stop stop-color="#C3B218"/>
<stop offset="0.4087" stop-color="#C6931A"/>
<stop offset="0.7754" stop-color="#C97D1B"/>
<stop offset="1" stop-color="#C9741B"/>
</linearGradient>
<linearGradient id="paint5_linear_2464_1623" x1="125.414" y1="112.642" x2="10.4425" y2="227.613" gradientUnits="userSpaceOnUse">
<stop stop-color="#CD2334"/>
<stop offset="1" stop-color="#99164D"/>
</linearGradient>
<linearGradient id="paint6_linear_2464_1623" x1="110.124" y1="43.9928" x2="25.3417" y2="128.775" gradientUnits="userSpaceOnUse">
<stop stop-color="#4688CF"/>
<stop offset="0.00657445" stop-color="#4688CF"/>
<stop offset="0.2601" stop-color="#4AAAE3"/>
<stop offset="0.5122" stop-color="#4CBEE4"/>
<stop offset="0.7604" stop-color="#53C7DF"/>
<stop offset="1" stop-color="#54C7DC"/>
</linearGradient>
<linearGradient id="paint7_linear_2464_1623" x1="125.424" y1="112.63" x2="10.4531" y2="227.604" gradientUnits="userSpaceOnUse">
<stop stop-color="#E12439"/>
<stop offset="1" stop-color="#AB1556"/>
</linearGradient>
<linearGradient id="paint8_linear_2464_1623" x1="170.928" y1="101.046" x2="48.6886" y2="101.046" gradientUnits="userSpaceOnUse">
<stop stop-color="#D8C411"/>
<stop offset="0.4087" stop-color="#DBA114"/>
<stop offset="0.7754" stop-color="#DD8917"/>
<stop offset="1" stop-color="#DE7F18"/>
</linearGradient>
<linearGradient id="paint9_linear_2464_1623" x1="170.928" y1="101.049" x2="48.6886" y2="101.049" gradientUnits="userSpaceOnUse">
<stop stop-color="#F8EA27"/>
<stop offset="0.4087" stop-color="#FCCB28"/>
<stop offset="0.7754" stop-color="#FAB42A"/>
<stop offset="1" stop-color="#F9AB2B"/>
</linearGradient>
<linearGradient id="paint10_linear_2464_1623" x1="110.124" y1="44.0029" x2="25.3417" y2="128.785" gradientUnits="userSpaceOnUse">
<stop stop-color="#6CB7E8"/>
<stop offset="0.00657445" stop-color="#6CB8E8"/>
<stop offset="0.2601" stop-color="#6CD0F6"/>
<stop offset="0.5122" stop-color="#75D2F0"/>
<stop offset="0.7604" stop-color="#7DD5EB"/>
<stop offset="1" stop-color="#7ED5E9"/>
</linearGradient>
<linearGradient id="paint11_linear_2464_1623" x1="36.8654" y1="0.884163" x2="88.205" y2="52.2237" gradientUnits="userSpaceOnUse">
<stop stop-color="#64BF8C"/>
<stop offset="0.0685" stop-color="#63C58C"/>
<stop offset="0.4762" stop-color="#69C982"/>
<stop offset="0.8009" stop-color="#6FCB7D"/>
<stop offset="1" stop-color="#70CB79"/>
</linearGradient>
</defs>
</svg>
