<svg width="920" height="815" viewBox="0 0 920 815" fill="none" xmlns="http://www.w3.org/2000/svg">
<path d="M35.8913 545.007H0.109375V451.472H134.449V809.291H35.8913V545.007Z" fill="#202148"/>
<path d="M511.066 545.007H282.564V715.128H511.066V545.007ZM184.634 809.291V451.472H609.623V809.291H184.634Z" fill="#202148"/>
<path d="M35.8913 95.7157H0.109375V2.18053H134.449V360H35.8913V95.7157Z" fill="#202148"/>
<path d="M511.066 95.7157H282.564V265.837H511.066V95.7157ZM184.634 360V2.18053H609.623V360H184.634Z" fill="#202148"/>
<path d="M716.783 187.432H645.219V0.361328H913.898V583.645H716.783V187.432Z" fill="#5244F2"/>
<path d="M748.89 618.752H728.623L719.296 605.39H785.3V618.752H762.97V656.507H748.89V618.752Z" fill="#5244F2"/>
<path d="M792.634 642.966H846.441V656.507H792.634V642.966ZM792.634 624.133H832.81V637.585H792.634V624.133ZM792.634 605.39H846.531V618.752H792.634V605.39Z" fill="#5244F2"/>
<path d="M853.673 605.39H864.435L895.553 633.19V605.39H909.633V656.507H899.14L867.663 628.976V656.507H853.673V605.39Z" fill="#5244F2"/>
<path d="M748.89 696.773H728.623L719.296 683.411H785.3V696.773H762.97V734.528H748.89V696.773Z" fill="#5244F2"/>
<path d="M792.634 720.986H846.441V734.528H792.634V720.986ZM792.634 702.154H832.81V715.606H792.634V702.154ZM792.634 683.411H846.531V696.773H792.634V683.411Z" fill="#5244F2"/>
<path d="M853.673 683.411H864.435L895.553 711.211V683.411H909.633V734.528H899.14L867.663 706.996V734.528H853.673V683.411Z" fill="#5244F2"/>
<path d="M771.131 763.225C774.897 763.225 777.558 764.182 779.112 766.095C780.726 768.008 781.533 770.489 781.533 773.538V803.222C781.533 806.63 780.517 809.35 778.484 811.383C776.451 813.356 773.642 814.342 770.054 814.342H732.21C728.623 814.342 725.813 813.356 723.78 811.383C721.747 809.35 720.731 806.63 720.731 803.222V783.851H734.811V800.98H767.454V776.587H720.731V773.538C720.731 770.489 721.508 768.008 723.063 766.095C724.677 764.182 727.367 763.225 731.134 763.225H771.131Z" fill="#5244F2"/>
<path d="M784.716 763.225H804.804L835.923 791.025V763.225H850.003V814.342H839.51L808.033 786.811V814.342H794.043V776.587L784.716 763.225Z" fill="#5244F2"/>
<path d="M919.142 763.225V776.587H865.155L855.829 763.225H919.142ZM865.155 800.8H919.052V814.342H865.155V800.8ZM865.155 781.968H905.421V795.42H865.155V781.968Z" fill="#5244F2"/>
</svg>
