<svg width="920" height="814" viewBox="0 0 920 814" fill="none" xmlns="http://www.w3.org/2000/svg">
<path d="M35.7819 544.646H0V451.111H134.339V808.93H35.7819V544.646Z" fill="#837AE5"/>
<path d="M510.957 544.646H282.454V714.767H510.957V544.646ZM184.525 808.93V451.111H609.514V808.93H184.525Z" fill="#837AE5"/>
<path d="M35.7819 95.3544H0V1.8192H134.339V359.638H35.7819V95.3544Z" fill="#837AE5"/>
<path d="M510.957 95.3544H282.454V265.475H510.957V95.3544ZM184.525 359.638V1.8192H609.514V359.638H184.525Z" fill="#837AE5"/>
<path d="M716.674 187.07H645.11V0H913.788V583.284H716.674V187.07Z" fill="white"/>
<path d="M748.781 618.391H728.513L719.187 605.029H785.19V618.391H762.86V656.146H748.781V618.391Z" fill="white"/>
<path d="M792.524 642.604H846.332V656.146H792.524V642.604ZM792.524 623.772H832.701V637.223H792.524V623.772ZM792.524 605.029H846.422V618.391H792.524V605.029Z" fill="white"/>
<path d="M853.564 605.029H864.325L895.444 632.829V605.029H909.523V656.146H899.031L867.554 628.614V656.146H853.564V605.029Z" fill="white"/>
<path d="M748.781 696.412H728.513L719.187 683.05H785.19V696.412H762.86V734.167H748.781V696.412Z" fill="white"/>
<path d="M792.524 720.625H846.332V734.167H792.524V720.625ZM792.524 701.792H832.701V715.244H792.524V701.792ZM792.524 683.05H846.422V696.412H792.524V683.05Z" fill="white"/>
<path d="M853.564 683.05H864.325L895.444 710.85V683.05H909.523V734.167H899.031L867.554 706.635V734.167H853.564V683.05Z" fill="white"/>
<path d="M771.021 762.864C774.788 762.864 777.448 763.82 779.003 765.733C780.617 767.647 781.424 770.128 781.424 773.177V802.86C781.424 806.268 780.408 808.989 778.375 811.021C776.342 812.994 773.532 813.981 769.945 813.981H732.1C728.513 813.981 725.703 812.994 723.671 811.021C721.638 808.989 720.622 806.268 720.622 802.86V783.49H734.701V800.619H767.344V776.226H720.622V773.177C720.622 770.128 721.399 767.647 722.953 765.733C724.567 763.82 727.258 762.864 731.024 762.864H771.021Z" fill="white"/>
<path d="M784.607 762.864H804.695L835.814 790.664V762.864H849.893V813.981H839.401L807.923 786.449V813.981H793.933V776.226L784.607 762.864Z" fill="white"/>
<path d="M919.033 762.864V776.226H865.046L855.719 762.864H919.033ZM865.046 800.439H918.943V813.981H865.046V800.439ZM865.046 781.607H905.312V795.058H865.046V781.607Z" fill="white"/>
</svg>
